<svg width="16" height="16" viewBox="0 0 16 16" fill="none" xmlns="http://www.w3.org/2000/svg">
<g clip-path="url(#clip0)">
<path fill-rule="evenodd" clip-rule="evenodd" d="M1 11.5C1 11.6326 1.05268 11.7598 1.14645 11.8536C1.24022 11.9473 1.36739 12 1.5 12H13.293L10.146 15.146C10.0521 15.2399 9.99937 15.3672 9.99937 15.5C9.99937 15.6328 10.0521 15.7601 10.146 15.854C10.2399 15.9479 10.3672 16.0006 10.5 16.0006C10.6328 16.0006 10.7601 15.9479 10.854 15.854L14.854 11.854C14.9006 11.8076 14.9375 11.7524 14.9627 11.6916C14.9879 11.6309 15.0009 11.5658 15.0009 11.5C15.0009 11.4342 14.9879 11.3691 14.9627 11.3084C14.9375 11.2476 14.9006 11.1925 14.854 11.146L10.854 7.14601C10.7601 7.05212 10.6328 6.99937 10.5 6.99937C10.3672 6.99937 10.2399 7.05212 10.146 7.14601C10.0521 7.23989 9.99937 7.36723 9.99937 7.50001C9.99937 7.63278 10.0521 7.76012 10.146 7.85401L13.293 11H1.5C1.36739 11 1.24022 11.0527 1.14645 11.1465C1.05268 11.2402 1 11.3674 1 11.5V11.5ZM15 4.50001C15 4.63261 14.9473 4.75979 14.8536 4.85356C14.7598 4.94733 14.6326 5.00001 14.5 5.00001H2.707L5.854 8.14601C5.90049 8.19249 5.93737 8.24768 5.96252 8.30842C5.98768 8.36916 6.00063 8.43426 6.00063 8.50001C6.00063 8.56575 5.98768 8.63085 5.96252 8.69159C5.93737 8.75233 5.90049 8.80752 5.854 8.85401C5.80751 8.90049 5.75232 8.93737 5.69158 8.96253C5.63085 8.98769 5.56574 9.00064 5.5 9.00064C5.43426 9.00064 5.36916 8.98769 5.30842 8.96253C5.24768 8.93737 5.19249 8.90049 5.146 8.85401L1.146 4.85401C1.09944 4.80756 1.0625 4.75239 1.03729 4.69164C1.01208 4.63089 0.999107 4.56577 0.999107 4.50001C0.999107 4.43424 1.01208 4.36912 1.03729 4.30837C1.0625 4.24763 1.09944 4.19245 1.146 4.14601L5.146 0.146006C5.23989 0.0521194 5.36723 -0.00062561 5.5 -0.00062561C5.63278 -0.00062561 5.76011 0.0521194 5.854 0.146006C5.94789 0.239893 6.00063 0.36723 6.00063 0.500006C6.00063 0.632782 5.94789 0.760119 5.854 0.854006L2.707 4.00001H14.5C14.6326 4.00001 14.7598 4.05268 14.8536 4.14645C14.9473 4.24022 15 4.3674 15 4.50001Z" fill="black"/>
</g>
<defs>
<clipPath id="clip0">
<rect width="16" height="16" fill="white"/>
</clipPath>
</defs>
</svg>
