<svg width="54" height="16" viewBox="0 0 54 16" fill="none" xmlns="http://www.w3.org/2000/svg">
<path d="M32.3867 7.7832C32.3867 6.79492 32.6074 6.00781 33.0488 5.42188C33.4941 4.83594 34.1016 4.54297 34.8711 4.54297C35.4883 4.54297 35.998 4.77344 36.4004 5.23438V2H38.0996V11H36.5703L36.4883 10.3262C36.0664 10.8535 35.5234 11.1172 34.8594 11.1172C34.1133 11.1172 33.5137 10.8242 33.0605 10.2383C32.6113 9.64844 32.3867 8.83008 32.3867 7.7832ZM34.0801 7.90625C34.0801 8.5 34.1836 8.95508 34.3906 9.27148C34.5977 9.58789 34.8984 9.74609 35.293 9.74609C35.8164 9.74609 36.1855 9.52539 36.4004 9.08398V6.58203C36.1895 6.14062 35.8242 5.91992 35.3047 5.91992C34.4883 5.91992 34.0801 6.58203 34.0801 7.90625ZM42.3301 11.1172C41.4004 11.1172 40.6426 10.832 40.0566 10.2617C39.4746 9.69141 39.1836 8.93164 39.1836 7.98242V7.81836C39.1836 7.18164 39.3066 6.61328 39.5527 6.11328C39.7988 5.60938 40.1465 5.22266 40.5957 4.95312C41.0488 4.67969 41.5645 4.54297 42.1426 4.54297C43.0098 4.54297 43.6914 4.81641 44.1875 5.36328C44.6875 5.91016 44.9375 6.68555 44.9375 7.68945V8.38086H40.9004C40.9551 8.79492 41.1191 9.12695 41.3926 9.37695C41.6699 9.62695 42.0195 9.75195 42.4414 9.75195C43.0938 9.75195 43.6035 9.51562 43.9707 9.04297L44.8027 9.97461C44.5488 10.334 44.2051 10.6152 43.7715 10.8184C43.3379 11.0176 42.8574 11.1172 42.3301 11.1172ZM42.1367 5.91406C41.8008 5.91406 41.5273 6.02734 41.3164 6.25391C41.1094 6.48047 40.9766 6.80469 40.918 7.22656H43.2734V7.0918C43.2656 6.7168 43.1641 6.42773 42.9688 6.22461C42.7734 6.01758 42.4961 5.91406 42.1367 5.91406ZM48.541 9.75195C48.8535 9.75195 49.1074 9.66602 49.3027 9.49414C49.498 9.32227 49.5996 9.09375 49.6074 8.80859H51.1953C51.1914 9.23828 51.0742 9.63281 50.8438 9.99219C50.6133 10.3477 50.2969 10.625 49.8945 10.8242C49.4961 11.0195 49.0547 11.1172 48.5703 11.1172C47.6641 11.1172 46.9492 10.8301 46.4258 10.2559C45.9023 9.67773 45.6406 8.88086 45.6406 7.86523V7.75391C45.6406 6.77734 45.9004 5.99805 46.4199 5.41602C46.9395 4.83398 47.6523 4.54297 48.5586 4.54297C49.3516 4.54297 49.9863 4.76953 50.4629 5.22266C50.9434 5.67188 51.1875 6.27148 51.1953 7.02148H49.6074C49.5996 6.69336 49.498 6.42773 49.3027 6.22461C49.1074 6.01758 48.8496 5.91406 48.5293 5.91406C48.1348 5.91406 47.8359 6.05859 47.6328 6.34766C47.4336 6.63281 47.334 7.09766 47.334 7.74219V7.91797C47.334 8.57031 47.4336 9.03906 47.6328 9.32422C47.832 9.60938 48.1348 9.75195 48.541 9.75195Z" fill="black"/>
<path d="M6.36328 7.88867C6.36328 8.9043 6.14648 9.69727 5.71289 10.2676C5.2793 10.834 4.67383 11.1172 3.89648 11.1172C3.20898 11.1172 2.66016 10.8535 2.25 10.3262L2.17383 11H0.650391V2H2.34375V5.22852C2.73438 4.77148 3.24805 4.54297 3.88477 4.54297C4.6582 4.54297 5.26367 4.82812 5.70117 5.39844C6.14258 5.96484 6.36328 6.76367 6.36328 7.79492V7.88867ZM4.66992 7.76562C4.66992 7.125 4.56836 6.6582 4.36523 6.36523C4.16211 6.06836 3.85938 5.91992 3.45703 5.91992C2.91797 5.91992 2.54688 6.14062 2.34375 6.58203V9.08398C2.55078 9.5293 2.92578 9.75195 3.46875 9.75195C4.01562 9.75195 4.375 9.48242 4.54688 8.94336C4.62891 8.68555 4.66992 8.29297 4.66992 7.76562ZM9.19922 11H7.5V4.66016H9.19922V11ZM7.40039 3.01953C7.40039 2.76563 7.48438 2.55664 7.65234 2.39258C7.82422 2.22852 8.05664 2.14648 8.34961 2.14648C8.63867 2.14648 8.86914 2.22852 9.04102 2.39258C9.21289 2.55664 9.29883 2.76563 9.29883 3.01953C9.29883 3.27734 9.21094 3.48828 9.03516 3.65234C8.86328 3.81641 8.63477 3.89844 8.34961 3.89844C8.06445 3.89844 7.83398 3.81641 7.6582 3.65234C7.48633 3.48828 7.40039 3.27734 7.40039 3.01953ZM12.1582 4.66016L12.2109 5.39258C12.6641 4.82617 13.2715 4.54297 14.0332 4.54297C14.7051 4.54297 15.2051 4.74023 15.5332 5.13477C15.8613 5.5293 16.0293 6.11914 16.0371 6.9043V11H14.3438V6.94531C14.3438 6.58594 14.2656 6.32617 14.1094 6.16602C13.9531 6.00195 13.6934 5.91992 13.3301 5.91992C12.8535 5.91992 12.4961 6.12305 12.2578 6.5293V11H10.5645V4.66016H12.1582Z" fill="black"/>
<g clip-path="url(#clip0)">
<path fill-rule="evenodd" clip-rule="evenodd" d="M17 11.5C17 11.6326 17.0527 11.7598 17.1464 11.8536C17.2402 11.9473 17.3674 12 17.5 12H29.293L26.146 15.146C26.0521 15.2399 25.9994 15.3672 25.9994 15.5C25.9994 15.6328 26.0521 15.7601 26.146 15.854C26.2399 15.9479 26.3672 16.0006 26.5 16.0006C26.6328 16.0006 26.7601 15.9479 26.854 15.854L30.854 11.854C30.9006 11.8076 30.9375 11.7524 30.9627 11.6916C30.9879 11.6309 31.0009 11.5658 31.0009 11.5C31.0009 11.4342 30.9879 11.3691 30.9627 11.3084C30.9375 11.2476 30.9006 11.1925 30.854 11.146L26.854 7.14601C26.7601 7.05212 26.6328 6.99937 26.5 6.99937C26.3672 6.99937 26.2399 7.05212 26.146 7.14601C26.0521 7.23989 25.9994 7.36723 25.9994 7.50001C25.9994 7.63278 26.0521 7.76012 26.146 7.85401L29.293 11H17.5C17.3674 11 17.2402 11.0527 17.1464 11.1465C17.0527 11.2402 17 11.3674 17 11.5V11.5ZM31 4.50001C31 4.63261 30.9473 4.75979 30.8536 4.85356C30.7598 4.94733 30.6326 5.00001 30.5 5.00001H18.707L21.854 8.14601C21.9005 8.19249 21.9374 8.24768 21.9625 8.30842C21.9877 8.36916 22.0006 8.43426 22.0006 8.50001C22.0006 8.56575 21.9877 8.63085 21.9625 8.69159C21.9374 8.75233 21.9005 8.80752 21.854 8.85401C21.8075 8.90049 21.7523 8.93737 21.6916 8.96253C21.6308 8.98769 21.5657 9.00064 21.5 9.00064C21.4343 9.00064 21.3692 8.98769 21.3084 8.96253C21.2477 8.93737 21.1925 8.90049 21.146 8.85401L17.146 4.85401C17.0994 4.80756 17.0625 4.75239 17.0373 4.69164C17.0121 4.63089 16.9991 4.56577 16.9991 4.50001C16.9991 4.43424 17.0121 4.36912 17.0373 4.30837C17.0625 4.24763 17.0994 4.19245 17.146 4.14601L21.146 0.146006C21.2399 0.0521194 21.3672 -0.00062561 21.5 -0.00062561C21.6328 -0.00062561 21.7601 0.0521194 21.854 0.146006C21.9479 0.239893 22.0006 0.36723 22.0006 0.500006C22.0006 0.632782 21.9479 0.760119 21.854 0.854006L18.707 4.00001H30.5C30.6326 4.00001 30.7598 4.05268 30.8536 4.14645C30.9473 4.24022 31 4.3674 31 4.50001Z" fill="black"/>
</g>
<defs>
<clipPath id="clip0">
<rect width="16" height="16" fill="white" transform="translate(16)"/>
</clipPath>
</defs>
</svg>
